<svg id="visual" viewBox="0 0 900 600" width="900" height="600" xmlns="http://www.w3.org/2000/svg" xmlns:xlink="http://www.w3.org/1999/xlink" version="1.1"><rect x="0" y="0" width="900" height="600" fill="#393e46"></rect><defs><linearGradient id="grad1_0" x1="33.3%" y1="100%" x2="100%" y2="0%"><stop offset="20%" stop-color="#222831" stop-opacity="1"></stop><stop offset="80%" stop-color="#222831" stop-opacity="1"></stop></linearGradient></defs><defs><linearGradient id="grad1_1" x1="33.3%" y1="100%" x2="100%" y2="0%"><stop offset="20%" stop-color="#222831" stop-opacity="1"></stop><stop offset="80%" stop-color="#2d333b" stop-opacity="1"></stop></linearGradient></defs><defs><linearGradient id="grad1_2" x1="33.3%" y1="100%" x2="100%" y2="0%"><stop offset="20%" stop-color="#393e46" stop-opacity="1"></stop><stop offset="80%" stop-color="#2d333b" stop-opacity="1"></stop></linearGradient></defs><defs><linearGradient id="grad2_0" x1="0%" y1="100%" x2="66.7%" y2="0%"><stop offset="20%" stop-color="#222831" stop-opacity="1"></stop><stop offset="80%" stop-color="#222831" stop-opacity="1"></stop></linearGradient></defs><defs><linearGradient id="grad2_1" x1="0%" y1="100%" x2="66.7%" y2="0%"><stop offset="20%" stop-color="#2d333b" stop-opacity="1"></stop><stop offset="80%" stop-color="#222831" stop-opacity="1"></stop></linearGradient></defs><defs><linearGradient id="grad2_2" x1="0%" y1="100%" x2="66.7%" y2="0%"><stop offset="20%" stop-color="#2d333b" stop-opacity="1"></stop><stop offset="80%" stop-color="#393e46" stop-opacity="1"></stop></linearGradient></defs><g transform="translate(900, 600)"><path d="M-378.6 0C-377.5 -41.3 -376.4 -82.6 -360.1 -117C-343.7 -151.4 -312.1 -178.8 -285.6 -207.5C-259.1 -236.2 -237.6 -266.1 -209.3 -288C-180.9 -309.9 -145.7 -323.9 -109.7 -337.6C-73.7 -351.4 -36.8 -365 0 -378.6L0 0Z" fill="#333841"></path><path d="M-252.4 0C-251.7 -27.5 -250.9 -55.1 -240 -78C-229.1 -100.9 -208.1 -119.2 -190.4 -138.3C-172.7 -157.4 -158.4 -177.4 -139.5 -192C-120.6 -206.6 -97.1 -215.9 -73.1 -225.1C-49.1 -234.3 -24.6 -243.3 0 -252.4L0 0Z" fill="#282d36"></path><path d="M-126.2 0C-125.8 -13.8 -125.5 -27.5 -120 -39C-114.6 -50.5 -104 -59.6 -95.2 -69.2C-86.4 -78.7 -79.2 -88.7 -69.8 -96C-60.3 -103.3 -48.6 -108 -36.6 -112.5C-24.6 -117.1 -12.3 -121.7 0 -126.2L0 0Z" fill="#222831"></path></g><g transform="translate(0, 0)"><path d="M378.6 0C375.4 39.6 372.3 79.3 360.1 117C347.9 154.7 326.6 190.5 297.7 216.3C268.8 242.1 232.2 257.9 199.8 275.1C167.4 292.2 139.2 310.6 106.6 328.1C74 345.6 37 362.1 0 378.6L0 0Z" fill="#333841"></path><path d="M252.4 0C250.3 26.4 248.2 52.8 240 78C231.9 103.1 217.7 127 198.5 144.2C179.2 161.4 154.8 172 133.2 183.4C111.6 194.8 92.8 207.1 71.1 218.7C49.3 230.4 24.7 241.4 0 252.4L0 0Z" fill="#282d36"></path><path d="M126.2 0C125.1 13.2 124.1 26.4 120 39C116 51.6 108.9 63.5 99.2 72.1C89.6 80.7 77.4 86 66.6 91.7C55.8 97.4 46.4 103.5 35.5 109.4C24.7 115.2 12.3 120.7 0 126.2L0 0Z" fill="#222831"></path></g></svg>