<svg width="35" height="39" viewBox="0 0 35 39" fill="none" xmlns="http://www.w3.org/2000/svg">
<rect y="7" width="32" height="32" fill="#1E293B"/>
<mask id="mask0_23_47" style="mask-type:alpha" maskUnits="userSpaceOnUse" x="4" y="11" width="23" height="26">
<path d="M4.2 27.56H8.52V32H4.2V27.56ZM10.999 16.67H14.929V30.47C14.929 31.99 14.749 33.2 14.389 34.1C14.029 35 13.279 35.8 12.139 36.5H8.17898V33.35H10.249C10.749 33.05 10.999 32.57 10.999 31.91V16.67ZM10.999 11H14.929V15.35H10.999V11ZM19.0029 16.67H25.6329V19.82H20.9529L23.8029 24.05C25.0829 25.87 25.7929 27.12 25.9329 27.8C26.0129 28.12 26.0529 28.45 26.0529 28.79C26.0529 30.21 25.5229 31.28 24.4629 32H16.8129V28.85H22.3029L19.0929 24.14C18.9529 23.92 18.7329 23.61 18.4329 23.21C18.1529 22.81 17.9329 22.49 17.7729 22.25C17.6129 21.99 17.5029 21.8 17.4429 21.68C17.3829 21.56 17.3029 21.41 17.2029 21.23C17.1029 21.03 17.0329 20.86 16.9929 20.72C16.9129 20.34 16.8729 20.03 16.8729 19.79C16.8729 18.33 17.5829 17.29 19.0029 16.67Z" fill="white"/>
</mask>
<g mask="url(#mask0_23_47)">
<rect x="3" y="25" width="32" height="10" fill="#FC6736"/>
<rect x="3" y="11" width="32" height="11" fill="#FC6736"/>
</g>
</svg>
