<svg width="292" height="292" viewBox="0 0 292 292" fill="none" xmlns="http://www.w3.org/2000/svg">
<path fill-rule="evenodd" clip-rule="evenodd" d="M288.929 138.929C292.834 142.834 292.834 149.166 288.929 153.071L153.071 288.929C149.166 292.834 142.834 292.834 138.929 288.929L3.07068 153.071C-0.834106 149.166 -0.834106 142.834 3.07068 138.929L138.929 3.07104C142.834 -0.834229 149.166 -0.834229 153.071 3.07104L288.929 138.929ZM250.929 139.429C254.834 143.334 254.834 149.666 250.929 153.571L152.571 251.929C148.665 255.834 142.334 255.834 138.429 251.929L40.0707 153.571C36.1654 149.666 36.1659 143.334 40.0707 139.429L138.429 41.071C142.334 37.1658 148.666 37.1658 152.571 41.071L250.929 139.429ZM153.071 78.071C149.166 74.1658 142.834 74.1658 138.929 78.071L78.0712 138.929C74.1659 142.834 74.1659 149.166 78.0712 153.071L138.929 213.929C142.834 217.834 149.166 217.834 153.071 213.929L213.929 153.071C217.834 149.166 217.834 142.834 213.929 138.929L153.071 78.071Z"/>
</svg>
