<svg width="292" height="292" viewBox="0 0 292 292" fill="none" xmlns="http://www.w3.org/2000/svg">
<path fill-rule="evenodd" clip-rule="evenodd" d="M288.929 153.071C292.834 149.166 292.834 142.834 288.929 138.929L153.071 3.07102C149.166 -0.834223 142.834 -0.834219 138.929 3.07102L3.07102 138.929C-0.834223 142.834 -0.834219 149.166 3.07102 153.071L138.929 288.929C142.834 292.834 149.166 292.834 153.071 288.929L288.929 153.071ZM250.929 153.571C254.834 149.666 254.834 143.334 250.929 139.429L152.571 41.071C148.666 37.1658 142.334 37.1658 138.429 41.071L40.071 139.429C36.1658 143.334 36.1658 149.666 40.071 153.571L138.429 251.929C142.334 255.834 148.666 255.834 152.571 251.929L250.929 153.571Z" fill="black"/>
</svg>
