<svg id="visual" viewBox="0 0 960 540" width="960" height="540" xmlns="http://www.w3.org/2000/svg" xmlns:xlink="http://www.w3.org/1999/xlink" version="1.1"><path d="M738 540L730 532.5C722 525 706 510 688.5 495C671 480 652 465 642.5 450C633 435 633 420 628.2 405C623.3 390 613.7 375 615.2 360C616.7 345 629.3 330 638.8 315C648.3 300 654.7 285 672.3 270C690 255 719 240 683.8 225C648.7 210 549.3 195 539.7 180C530 165 610 150 666 135C722 120 754 105 774.8 90C795.7 75 805.3 60 807 45C808.7 30 802.3 15 799.2 7.5L796 0L960 0L960 7.5C960 15 960 30 960 45C960 60 960 75 960 90C960 105 960 120 960 135C960 150 960 165 960 180C960 195 960 210 960 225C960 240 960 255 960 270C960 285 960 300 960 315C960 330 960 345 960 360C960 375 960 390 960 405C960 420 960 435 960 450C960 465 960 480 960 495C960 510 960 525 960 532.5L960 540Z" fill="#0d1320"></path><path d="M642 540L630.8 532.5C619.7 525 597.3 510 568.5 495C539.7 480 504.3 465 504.3 450C504.3 435 539.7 420 551 405C562.3 390 549.7 375 533.7 360C517.7 345 498.3 330 491.8 315C485.3 300 491.7 285 515.7 270C539.7 255 581.3 240 563.8 225C546.3 210 469.7 195 461.7 180C453.7 165 514.3 150 562.3 135C610.3 120 645.7 105 668 90C690.3 75 699.7 60 707.7 45C715.7 30 722.3 15 725.7 7.5L729 0L797 0L800.2 7.5C803.3 15 809.7 30 808 45C806.3 60 796.7 75 775.8 90C755 105 723 120 667 135C611 150 531 165 540.7 180C550.3 195 649.7 210 684.8 225C720 240 691 255 673.3 270C655.7 285 649.3 300 639.8 315C630.3 330 617.7 345 616.2 360C614.7 375 624.3 390 629.2 405C634 420 634 435 643.5 450C653 465 672 480 689.5 495C707 510 723 525 731 532.5L739 540Z" fill="#141e35"></path><path d="M277 540L293 532.5C309 525 341 510 341 495C341 480 309 465 289.8 450C270.7 435 264.3 420 288.3 405C312.3 390 366.7 375 363.5 360C360.3 345 299.7 330 287 315C274.3 300 309.7 285 324 270C338.3 255 331.7 240 304.3 225C277 210 229 195 214.7 180C200.3 165 219.7 150 248.5 135C277.3 120 315.7 105 331.7 90C347.7 75 341.3 60 347.8 45C354.3 30 373.7 15 383.3 7.5L393 0L730 0L726.7 7.5C723.3 15 716.7 30 708.7 45C700.7 60 691.3 75 669 90C646.7 105 611.3 120 563.3 135C515.3 150 454.7 165 462.7 180C470.7 195 547.3 210 564.8 225C582.3 240 540.7 255 516.7 270C492.7 285 486.3 300 492.8 315C499.3 330 518.7 345 534.7 360C550.7 375 563.3 390 552 405C540.7 420 505.3 435 505.3 450C505.3 465 540.7 480 569.5 495C598.3 510 620.7 525 631.8 532.5L643 540Z" fill="#263559"></path><path d="M85 540L97.8 532.5C110.7 525 136.3 510 142.8 495C149.3 480 136.7 465 120.7 450C104.7 435 85.3 420 98.2 405C111 390 156 375 165.7 360C175.3 345 149.7 330 143.2 315C136.7 300 149.3 285 144.5 270C139.7 255 117.3 240 101.3 225C85.3 210 75.7 195 75.7 180C75.7 165 85.3 150 107.8 135C130.3 120 165.7 105 181.7 90C197.7 75 194.3 60 191 45C187.7 30 184.3 15 182.7 7.5L181 0L394 0L384.3 7.5C374.7 15 355.3 30 348.8 45C342.3 60 348.7 75 332.7 90C316.7 105 278.3 120 249.5 135C220.7 150 201.3 165 215.7 180C230 195 278 210 305.3 225C332.7 240 339.3 255 325 270C310.7 285 275.3 300 288 315C300.7 330 361.3 345 364.5 360C367.7 375 313.3 390 289.3 405C265.3 420 271.7 435 290.8 450C310 465 342 480 342 495C342 510 310 525 294 532.5L278 540Z" fill="#141e35"></path><path d="M0 540L0 532.5C0 525 0 510 0 495C0 480 0 465 0 450C0 435 0 420 0 405C0 390 0 375 0 360C0 345 0 330 0 315C0 300 0 285 0 270C0 255 0 240 0 225C0 210 0 195 0 180C0 165 0 150 0 135C0 120 0 105 0 90C0 75 0 60 0 45C0 30 0 15 0 7.5L0 0L182 0L183.7 7.5C185.3 15 188.7 30 192 45C195.3 60 198.7 75 182.7 90C166.7 105 131.3 120 108.8 135C86.3 150 76.7 165 76.7 180C76.7 195 86.3 210 102.3 225C118.3 240 140.7 255 145.5 270C150.3 285 137.7 300 144.2 315C150.7 330 176.3 345 166.7 360C157 375 112 390 99.2 405C86.3 420 105.7 435 121.7 450C137.7 465 150.3 480 143.8 495C137.3 510 111.7 525 98.8 532.5L86 540Z" fill="#0d1320"></path></svg>