<svg id="visual" viewBox="0 0 1080 300" width="1080" height="300" xmlns="http://www.w3.org/2000/svg" xmlns:xlink="http://www.w3.org/1999/xlink" version="1.1">
<path d="M0 65L108 22L216 23L324 25L432 49L540 38L648 23L756 79L864 58L972 55L1080 22L1080 301L972 301L864 301L756 301L648 301L540 301L432 301L324 301L216 301L108 301L0 301Z" fill="#393e46" fill-opacity="0.25"></path>
<path d="M0 106L108 114L216 80L324 78L432 84L540 94L648 56L756 68L864 57L972 73L1080 108L1080 301L972 301L864 301L756 301L648 301L540 301L432 301L324 301L216 301L108 301L0 301Z" fill="#353a42" fill-opacity="0.25"></path>
<path d="M0 130L108 106L216 149L324 125L432 134L540 115L648 148L756 102L864 147L972 103L1080 96L1080 301L972 301L864 301L756 301L648 301L540 301L432 301L324 301L216 301L108 301L0 301Z" fill="#31373f" fill-opacity="0.25"></path>
<path d="M0 136L108 173L216 179L324 177L432 146L540 183L648 152L756 157L864 149L972 139L1080 157L1080 301L972 301L864 301L756 301L648 301L540 301L432 301L324 301L216 301L108 301L0 301Z" fill="#2d333b" fill-opacity="0.25"></path>
<path d="M0 216L108 168L216 170L324 187L432 169L540 174L648 201L756 204L864 161L972 188L1080 196L1080 301L972 301L864 301L756 301L648 301L540 301L432 301L324 301L216 301L108 301L0 301Z" fill="#292f38" fill-opacity="0.25"></path>
<path d="M0 235L108 213L216 249L324 231L432 221L540 252L648 209L756 251L864 207L972 202L1080 249L1080 301L972 301L864 301L756 301L648 301L540 301L432 301L324 301L216 301L108 301L0 301Z" fill="#262c34" fill-opacity="0.25"></path>
<path d="M0 237L108 268L216 269L324 256L432 277L540 269L648 249L756 241L864 276L972 282L1080 270L1080 301L972 301L864 301L756 301L648 301L540 301L432 301L324 301L216 301L108 301L0 301Z" fill="#222831" fill-opacity="0.25"></path>
</svg>