<svg id="visual" viewBox="0 0 960 540" width="960" height="540" xmlns="http://www.w3.org/2000/svg" xmlns:xlink="http://www.w3.org/1999/xlink" version="1.1"><rect x="0" y="0" width="960" height="540" fill="#fff" fill-opacity="0"></rect><defs><linearGradient id="grad1_0" x1="43.8%" y1="100%" x2="100%" y2="0%"><stop offset="14.444444444444446%" stop-color="#ffffff" stop-opacity="0"></stop><stop offset="85.55555555555554%" stop-color="#ffffff" stop-opacity="0"></stop></linearGradient></defs><defs><linearGradient id="grad2_0" x1="0%" y1="100%" x2="56.3%" y2="0%"><stop offset="14.444444444444446%" stop-color="#ffffff" stop-opacity="0"></stop><stop offset="85.55555555555554%" stop-color="#ffffff" stop-opacity="0"></stop></linearGradient></defs><g transform="translate(960, 540)"><path d="M-378 0C-374.4 -39 -370.7 -78 -359.5 -116.8C-348.3 -155.7 -329.4 -194.4 -298.5 -216.9C-267.6 -239.4 -224.6 -245.8 -192.8 -265.4C-161 -284.9 -140.3 -317.6 -110 -338.6C-79.7 -359.5 -39.9 -368.8 0 -378L0 0Z" fill="#001220" fill-opacity="0.3"></path></g><g transform="translate(0, 0)"><path d="M378 0C367.7 37.5 357.5 75 347.1 112.8C336.8 150.6 326.4 188.6 305.8 222.2C285.2 255.7 254.4 284.8 219.8 302.6C185.3 320.4 147 326.9 109.7 337.6C72.4 348.3 36.2 363.2 0 378L0 0Z" fill="#0F172A" fill-opacity="0.6"></path></g></svg>